<?xml version="1.0" encoding="UTF-8"?>
<svg xmlns="http://www.w3.org/2000/svg" version="1.1" viewBox="0 0 1080 1080">
  <defs>
    <style>
      .cls-1 {
        fill: #f40606;
      }
    </style>
  </defs>
  <!-- Generator: Adobe Illustrator 28.6.0, SVG Export Plug-In . SVG Version: 1.2.0 Build 709)  -->
  <g>
    <g id="Camada_1">
      <path d="M984.9,160.12c-55.57-55.57-129.14-85.94-207.66-85.94s-152.31,30.6-207.88,86.17l-29.02,29.02-29.47-29.47c-55.57-55.57-129.59-86.39-208.11-86.39s-152.09,30.6-207.43,85.94C39.75,215.01,9.16,288.81,9.38,367.33c0,78.52,30.82,152.09,86.39,207.66l422.52,422.52c5.85,5.85,13.72,9,21.37,9s15.52-2.92,21.37-8.77l423.42-421.84c55.57-55.57,86.17-129.36,86.17-207.88.22-78.52-30.15-152.31-85.72-207.88Z"/>
      <path class="cls-1" d="M941.71,532.91l-402.04,400.47-401.14-401.14c-44.1-44.1-68.39-102.59-68.39-164.91s24.07-120.82,68.17-164.69c43.87-43.87,102.37-68.17,164.46-68.17s121.04,24.3,165.14,68.39l50.85,50.85c11.92,11.92,31.05,11.92,42.97,0l50.4-50.4c44.1-44.1,102.82-68.39,164.91-68.39s120.59,24.3,164.69,68.17c44.1,44.1,68.17,102.59,68.17,164.91.22,62.32-24.07,120.82-68.17,164.91Z"/>
    </g>
  </g>
</svg>