<svg xmlns="http://www.w3.org/2000/svg" viewBox="0 0 32 40" x="0px" y="0px"><g><path d="M30.5,17.105a1,1,0,0,1-1.574,1.234l-1.165-1.488A21.742,21.742,0,0,1,23.3,18.777l.588,1.114a1,1,0,1,1-1.768.934l-.81-1.535A25.178,25.178,0,0,1,17,19.814v1.551a1,1,0,0,1-2,0V19.814a25.178,25.178,0,0,1-4.306-.524l-.81,1.535a1,1,0,0,1-1.768-.934L8.7,18.777a21.742,21.742,0,0,1-4.467-1.926L3.072,18.339A1,1,0,1,1,1.5,17.105l1.056-1.348a12.093,12.093,0,0,1-1.262-1.04A1,1,0,0,1,2.708,13.3C2.751,13.347,7.4,17.846,16,17.846s13.249-4.5,13.294-4.544a1,1,0,0,1,1.414,1.415,12.093,12.093,0,0,1-1.262,1.04Z"/></g><text x="0" y="47" fill="#000000" font-size="5px" font-weight="bold" font-family="'Helvetica Neue', Helvetica, Arial-Unicode, Arial, Sans-serif">Created by The Icon Z</text><text x="0" y="52" fill="#000000" font-size="5px" font-weight="bold" font-family="'Helvetica Neue', Helvetica, Arial-Unicode, Arial, Sans-serif">from the Noun Project</text></svg>