<svg xmlns="http://www.w3.org/2000/svg" viewBox="0 0 32 40" x="0px" y="0px"><title>Artboard 20</title><g data-name="Layer 2"><path d="M16,21.75A5.75,5.75,0,1,1,21.75,16,5.76,5.76,0,0,1,16,21.75Zm0-10A4.25,4.25,0,1,0,20.25,16,4.25,4.25,0,0,0,16,11.75Z"/><path d="M16,4.88h0a.75.75,0,0,1,.75.75V8.88h-1.5V5.62A.75.75,0,0,1,16,4.88Z"/><path d="M6.07,6.57h0a.75.75,0,0,1,1,.35L8.48,9.85l-1.35.65L5.72,7.57A.75.75,0,0,1,6.07,6.57Z"/><path d="M25.93,6.6h0a.75.75,0,0,0-1,.35L23.52,9.87l1.35.65L26.28,7.6A.75.75,0,0,0,25.93,6.6Z"/><path d="M30.63,15.78a17.29,17.29,0,0,0-16.25-8A17.78,17.78,0,0,0,1.14,16.14l0,0,.26.4A17.32,17.32,0,0,0,3.2,19a.75.75,0,0,0,1,.07h0A.75.75,0,0,0,4.29,18,15.83,15.83,0,0,1,2.9,16.19a15.84,15.84,0,0,1,26.21,0,15.87,15.87,0,0,1-20.73,5,.76.76,0,0,0-1,.21h0a.76.76,0,0,0,.22,1.1A16.18,16.18,0,0,0,17,24.6a17.79,17.79,0,0,0,13.89-8.36l0-.05Z"/></g><text x="0" y="47" fill="#000000" font-size="5px" font-weight="bold" font-family="'Helvetica Neue', Helvetica, Arial-Unicode, Arial, Sans-serif">Created by Phoenix Dungeon</text><text x="0" y="52" fill="#000000" font-size="5px" font-weight="bold" font-family="'Helvetica Neue', Helvetica, Arial-Unicode, Arial, Sans-serif">from the Noun Project</text></svg>